STARTFONT 2.1
FONT -Monotype-Nimrod-Regular-I-Normal--25-180-100-100-P-151-iso8859-5
SIZE 18 100 100
FONTBOUNDINGBOX 35 30 -4 -6

STARTPROPERTIES 24
FOUNDRY "Monotype"
FAMILY_NAME "Nimrod"
WEIGHT_NAME "Regular"
SLANT "I"
SETWIDTH_NAME "Normal"
ADD_STYLE_NAME ""
PIXEL_SIZE 25
POINT_SIZE 180
RESOLUTION_X 100
RESOLUTION_Y 100
SPACING "P"
AVERAGE_WIDTH 151
CHARSET_REGISTRY "iso8859"
CHARSET_ENCODING "5"
FACE_NAME "Nimrod Inclined ISO Latin Cyrillic"
_DEC_DEVICE_FONTNAMES "PS=nimrod-in-latcyrillic"
COPYRIGHT "Copyright (c) 1993 Monotype Typography Ltd."
CAP_HEIGHT 22
X_HEIGHT 16
WEIGHT 10
QUAD_WIDTH 17
DEFAULT_CHAR 160
FONT_DESCENT 6
FONT_ASCENT 24
ENDPROPERTIES

CHARS 191

STARTCHAR space
ENCODING 32
SWIDTH 250 0
DWIDTH 6 0
BBX 0 0 0 0
BITMAP
ENDCHAR

STARTCHAR exclam
ENCODING 33
SWIDTH 354 0
DWIDTH 9 0
BBX 8 19 2 0
BITMAP
06
0F
0E
0E
0C
0C
0C
18
18
10
10
10
20
00
00
00
E0
E0
E0
ENDCHAR

STARTCHAR quotedbl
ENCODING 34
SWIDTH 417 0
DWIDTH 10 0
BBX 7 7 4 10
BITMAP
66
E6
C6
CC
8C
88
88
ENDCHAR

STARTCHAR numbersign
ENCODING 35
SWIDTH 667 0
DWIDTH 17 0
BBX 15 17 1 0
BITMAP
0608
0408
0418
0C10
0810
FFFE
0830
0830
1820
1020
1020
FFFE
1060
3040
2040
2040
20C0
ENDCHAR

STARTCHAR dollar
ENCODING 36
SWIDTH 500 0
DWIDTH 13 0
BBX 14 22 0 -3
BITMAP
0060
01C0
0778
0CCC
188C
189C
1998
1D00
0F00
0700
0380
03C0
02E0
06E0
E460
E460
C460
4CC0
7F80
0800
1800
1000
ENDCHAR

STARTCHAR percent
ENCODING 37
SWIDTH 1000 0
DWIDTH 25 0
BBX 18 18 5 0
BITMAP
1E0080
330100
730200
630400
630800
C61800
C61000
CE2000
CC4000
708780
010CC0
0218C0
0418C0
0C39C0
083180
103180
203300
C01E00
ENDCHAR

STARTCHAR ampersand
ENCODING 38
SWIDTH 854 0
DWIDTH 21 0
BBX 20 19 1 0
BITMAP
007800
01CC00
018600
030600
030600
030C00
039800
03F000
078000
1D87F0
31C1C0
61C180
60E100
E0E200
E07400
E03820
703C60
78DFC0
1F0700
ENDCHAR

STARTCHAR quoteright
ENCODING 39
SWIDTH 281 0
DWIDTH 7 0
BBX 4 7 4 12
BITMAP
70
70
50
30
20
C0
80
ENDCHAR

STARTCHAR parenleft
ENCODING 40
SWIDTH 354 0
DWIDTH 9 0
BBX 10 23 1 -4
BITMAP
00C0
0300
0600
0C00
1C00
1800
3000
7000
6000
E000
E000
E000
C000
C000
C000
C000
C000
E000
6000
6000
2000
3000
1800
ENDCHAR

STARTCHAR parenright
ENCODING 41
SWIDTH 354 0
DWIDTH 9 0
BBX 10 23 -2 -4
BITMAP
0200
0300
0100
0180
0180
00C0
00C0
00C0
00C0
00C0
00C0
00C0
01C0
01C0
0180
0380
0300
0700
0600
0C00
1800
3000
E000
ENDCHAR

STARTCHAR asterisk
ENCODING 42
SWIDTH 469 0
DWIDTH 12 0
BBX 10 10 3 9
BITMAP
0600
4600
E400
70C0
0FC0
3CC0
7600
6700
0700
0200
ENDCHAR

STARTCHAR plus
ENCODING 43
SWIDTH 667 0
DWIDTH 17 0
BBX 13 13 2 2
BITMAP
0200
0200
0200
0200
0200
0200
FFF8
0200
0200
0200
0200
0200
0200
ENDCHAR

STARTCHAR comma
ENCODING 44
SWIDTH 281 0
DWIDTH 7 0
BBX 4 6 0 -3
BITMAP
70
70
70
30
20
C0
ENDCHAR

STARTCHAR minus
ENCODING 45
SWIDTH 667 0
DWIDTH 17 0
BBX 13 1 2 8
BITMAP
FFF8
ENDCHAR

STARTCHAR period
ENCODING 46
SWIDTH 281 0
DWIDTH 7 0
BBX 3 3 1 0
BITMAP
E0
E0
E0
ENDCHAR

STARTCHAR slash
ENCODING 47
SWIDTH 510 0
DWIDTH 13 0
BBX 11 20 1 0
BITMAP
0060
0040
00C0
0080
0180
0100
0300
0200
0600
0400
0C00
0800
1800
1000
3000
2000
2000
4000
4000
8000
ENDCHAR

STARTCHAR zero
ENCODING 48
SWIDTH 500 0
DWIDTH 13 0
BBX 12 18 1 0
BITMAP
07C0
0E60
1C30
1830
3830
3030
7070
7070
6070
E060
E0E0
E0E0
C0C0
C1C0
C180
C380
6700
3C00
ENDCHAR

STARTCHAR one
ENCODING 49
SWIDTH 500 0
DWIDTH 13 0
BBX 10 18 1 0
BITMAP
0040
03C0
0FC0
0180
0180
0380
0380
0300
0300
0700
0600
0600
0600
0E00
0C00
0C00
1C00
FF80
ENDCHAR

STARTCHAR two
ENCODING 50
SWIDTH 500 0
DWIDTH 13 0
BBX 14 18 -1 0
BITMAP
03F0
0638
0C18
0C1C
0E1C
0E1C
0038
0038
0070
00E0
0180
0300
0E00
1810
3030
2060
7FE0
FFE0
ENDCHAR

STARTCHAR three
ENCODING 51
SWIDTH 500 0
DWIDTH 13 0
BBX 12 18 1 0
BITMAP
07C0
0C60
1830
1C30
1830
0070
0060
01C0
1F00
01C0
00C0
00C0
40C0
E0C0
E1C0
C180
6780
3E00
ENDCHAR

STARTCHAR four
ENCODING 52
SWIDTH 500 0
DWIDTH 13 0
BBX 12 18 1 0
BITMAP
0010
0030
0070
00F0
0160
0360
0660
0CE0
18C0
30C0
61C0
C180
FFE0
0180
0380
0300
0780
1FE0
ENDCHAR

STARTCHAR five
ENCODING 53
SWIDTH 500 0
DWIDTH 13 0
BBX 13 18 1 0
BITMAP
07F8
0FF8
0800
0800
1800
1000
1F80
38C0
00E0
0060
0060
0060
60E0
E0E0
E0C0
C1C0
6380
3E00
ENDCHAR

STARTCHAR six
ENCODING 54
SWIDTH 500 0
DWIDTH 13 0
BBX 12 18 2 0
BITMAP
03E0
0E70
1C70
1870
3800
3000
7000
6F80
79C0
F0E0
E0E0
E0E0
C0E0
C0C0
C1C0
4180
6380
3E00
ENDCHAR

STARTCHAR seven
ENCODING 55
SWIDTH 500 0
DWIDTH 13 0
BBX 11 18 3 0
BITMAP
3FE0
3FE0
6040
40C0
4180
C100
0300
0600
0C00
0C00
1C00
1800
3800
3800
7000
7000
7000
2000
ENDCHAR

STARTCHAR eight
ENCODING 56
SWIDTH 500 0
DWIDTH 13 0
BBX 12 18 2 0
BITMAP
07C0
1C60
1830
3830
3030
3070
3060
08C0
1F00
31C0
60C0
E0C0
C0C0
C1C0
C1C0
C380
6300
3E00
ENDCHAR

STARTCHAR nine
ENCODING 57
SWIDTH 500 0
DWIDTH 13 0
BBX 12 18 1 0
BITMAP
07C0
0C60
1C30
3830
3830
3030
3030
3070
3070
18E0
0F60
00E0
00C0
01C0
E180
E300
E600
7C00
ENDCHAR

STARTCHAR colon
ENCODING 58
SWIDTH 281 0
DWIDTH 7 0
BBX 6 14 1 0
BITMAP
1C
1C
1C
00
00
00
00
00
00
00
00
E0
E0
E0
ENDCHAR

STARTCHAR semicolon
ENCODING 59
SWIDTH 281 0
DWIDTH 7 0
BBX 7 17 -1 -3
BITMAP
0E
0E
0E
00
00
00
00
00
00
00
00
70
70
30
30
60
80
ENDCHAR

STARTCHAR less
ENCODING 60
SWIDTH 667 0
DWIDTH 17 0
BBX 13 12 2 2
BITMAP
0018
0070
03C0
0E00
3800
E000
E000
3800
0F00
01C0
0070
0018
ENDCHAR

STARTCHAR equal
ENCODING 61
SWIDTH 667 0
DWIDTH 17 0
BBX 13 7 2 5
BITMAP
FFF8
0000
0000
0000
0000
0000
FFF8
ENDCHAR

STARTCHAR greater
ENCODING 62
SWIDTH 667 0
DWIDTH 17 0
BBX 13 12 2 2
BITMAP
8000
F000
1C00
0700
00E0
0018
0038
01E0
0700
1C00
F000
8000
ENDCHAR

STARTCHAR question
ENCODING 63
SWIDTH 427 0
DWIDTH 11 0
BBX 10 19 2 0
BITMAP
1F00
31C0
70C0
70C0
31C0
01C0
0380
0F00
1C00
1800
3000
2000
2000
0000
0000
0000
E000
E000
E000
ENDCHAR

STARTCHAR at
ENCODING 64
SWIDTH 917 0
DWIDTH 23 0
BBX 22 23 1 -5
BITMAP
007E00
038180
060040
080020
100010
200008
603988
404708
408308
C18308
830608
830608
860610
860C10
861C20
476CC4
438704
600008
200010
100020
0C0040
030380
00FC00
ENDCHAR

STARTCHAR A
ENCODING 65
SWIDTH 771 0
DWIDTH 19 0
BBX 19 19 -1 0
BITMAP
000600
000E00
000E00
001E00
001600
002600
006600
004700
008700
018700
010300
030300
07FF00
040380
0C0380
180380
180380
380380
FE0FE0
ENDCHAR

STARTCHAR B
ENCODING 66
SWIDTH 740 0
DWIDTH 18 0
BBX 19 19 -1 0
BITMAP
0FFF80
01C1C0
0180E0
0380E0
0380E0
0380E0
0301E0
0701C0
070700
07FC00
060700
0E0180
0E01C0
0E01C0
0C01C0
1C03C0
1C0380
1C0F00
FFFC00
ENDCHAR

STARTCHAR C
ENCODING 67
SWIDTH 708 0
DWIDTH 18 0
BBX 17 19 2 0
BITMAP
01FC00
078700
0E0380
1C0180
380180
380100
700100
700000
700000
E00000
E00000
E00000
E00000
E00200
E00600
700400
781800
3C7000
0FC000
ENDCHAR

STARTCHAR D
ENCODING 68
SWIDTH 792 0
DWIDTH 20 0
BBX 20 19 0 0
BITMAP
0FFF00
03C180
0380C0
038060
038060
030070
070070
070070
070070
0E0070
0E00F0
0E00E0
0C00E0
1C01C0
1C01C0
1C0380
180700
3C1E00
FFF800
ENDCHAR

STARTCHAR E
ENCODING 69
SWIDTH 708 0
DWIDTH 18 0
BBX 19 19 0 0
BITMAP
0FFFE0
0381C0
0380C0
0380C0
0300C0
070080
070800
071800
063800
0FF000
0E7000
0E3000
0C3000
1C2180
1C0100
1C0300
180700
381E00
FFFE00
ENDCHAR

STARTCHAR F
ENCODING 70
SWIDTH 698 0
DWIDTH 17 0
BBX 19 19 0 0
BITMAP
0FFFE0
0381E0
0380C0
038040
030040
070440
070400
070800
061800
0FF800
0E3800
0E1000
0C1000
1C1000
1C0000
1C0000
180000
380000
FF8000
ENDCHAR

STARTCHAR G
ENCODING 71
SWIDTH 802 0
DWIDTH 20 0
BBX 18 19 2 0
BITMAP
00FE00
038780
0E01C0
1C0180
380180
380080
700080
700000
F00000
E00000
E01FC0
E00700
E00700
E00600
E00E00
700E00
300E00
183C00
0FE000
ENDCHAR

STARTCHAR H
ENCODING 72
SWIDTH 812 0
DWIDTH 20 0
BBX 23 19 0 0
BITMAP
0FF1FE
038070
038070
038070
030060
0700E0
0700E0
0700C0
0600C0
0FFFC0
0E01C0
0E0180
0C0380
1C0380
1C0380
1C0300
180700
380700
FF1FC0
ENDCHAR

STARTCHAR I
ENCODING 73
SWIDTH 417 0
DWIDTH 10 0
BBX 13 19 0 0
BITMAP
0FF8
03C0
0180
0380
0380
0380
0300
0700
0700
0700
0600
0E00
0E00
0C00
0C00
1C00
1C00
1C00
FF80
ENDCHAR

STARTCHAR J
ENCODING 74
SWIDTH 604 0
DWIDTH 15 0
BBX 17 19 0 0
BITMAP
00FF80
001E00
000C00
001C00
001C00
001800
003800
003800
003800
003000
007000
007000
707000
F06000
F0E000
C0E000
C1C000
638000
3F0000
ENDCHAR

STARTCHAR K
ENCODING 75
SWIDTH 760 0
DWIDTH 19 0
BBX 21 19 0 0
BITMAP
0FF3F8
0380E0
0381C0
038300
030600
070C00
071800
073000
06F000
0FB000
0F3800
0E1800
0C1C00
1C1C00
1C0E00
180E00
380600
380700
FF3FC0
ENDCHAR

STARTCHAR L
ENCODING 76
SWIDTH 667 0
DWIDTH 17 0
BBX 16 19 0 0
BITMAP
0FF8
0380
0380
0380
0300
0700
0700
0700
0600
0E00
0E00
0E00
0C01
1C01
1C03
1C06
180E
381E
FFFE
ENDCHAR

STARTCHAR M
ENCODING 77
SWIDTH 979 0
DWIDTH 24 0
BBX 27 19 0 0
BITMAP
0FE00FE0
03600B00
03601B00
02E03700
02E02600
02E06E00
06604E00
0460CE00
04618C00
04611C00
0C631C00
08721C00
08761800
18743800
18783800
10783000
30707000
38307000
FE21FE00
ENDCHAR

STARTCHAR N
ENCODING 78
SWIDTH 823 0
DWIDTH 21 0
BBX 23 19 0 0
BITMAP
0FC0FE
03C038
034010
02E030
026030
027020
067020
043860
043860
041840
0C1C40
080C40
080E80
080E80
180780
100780
100300
380300
FE0300
ENDCHAR

STARTCHAR O
ENCODING 79
SWIDTH 792 0
DWIDTH 20 0
BBX 18 19 2 0
BITMAP
00FC00
038600
0E0380
1C0180
3801C0
3801C0
7001C0
7001C0
F001C0
E001C0
E003C0
E00380
E00380
E00700
E00700
600E00
301C00
187000
0FC000
ENDCHAR

STARTCHAR P
ENCODING 80
SWIDTH 698 0
DWIDTH 17 0
BBX 19 19 -1 0
BITMAP
0FFF00
01C1C0
0180C0
0380E0
0380E0
0380E0
0301E0
0701C0
070780
07FE00
060000
0E0000
0E0000
0E0000
0C0000
1C0000
1C0000
1C0000
FF8000
ENDCHAR

STARTCHAR Q
ENCODING 81
SWIDTH 792 0
DWIDTH 20 0
BBX 18 22 2 -3
BITMAP
00FC00
038700
0E0380
1C0180
1C01C0
3801C0
3801C0
7001C0
7001C0
7001C0
E003C0
E78380
EFC380
F0E700
706700
707600
303C00
187000
0FF800
001C00
000E40
0007C0
ENDCHAR

STARTCHAR R
ENCODING 82
SWIDTH 760 0
DWIDTH 19 0
BBX 18 19 0 0
BITMAP
0FFF00
038380
0381C0
0301C0
0701C0
0701C0
0703C0
060380
0E0F00
0FF800
0E3800
0C1C00
1C1C00
1C0C00
1C0E00
180E00
380600
380700
FF07C0
ENDCHAR

STARTCHAR S
ENCODING 83
SWIDTH 646 0
DWIDTH 16 0
BBX 16 19 1 0
BITMAP
01FC
070F
0C07
1C03
1C02
1C02
0E00
0F80
07E0
01F8
007C
003E
601E
600E
600E
600E
E01C
F878
3FE0
ENDCHAR

STARTCHAR T
ENCODING 84
SWIDTH 750 0
DWIDTH 19 0
BBX 18 19 2 0
BITMAP
1FFFC0
3C71C0
30E0C0
20E080
60E080
40C080
C1C080
01C000
01C000
018000
038000
038000
038000
030000
070000
070000
070000
0F0000
7FE000
ENDCHAR

STARTCHAR U
ENCODING 85
SWIDTH 760 0
DWIDTH 19 0
BBX 19 19 3 0
BITMAP
7F9FE0
1C0380
1C0300
180300
380200
380200
380600
300600
700400
700400
700C00
600800
E00800
E00800
E01800
E01000
603000
78E000
1F8000
ENDCHAR

STARTCHAR V
ENCODING 86
SWIDTH 740 0
DWIDTH 18 0
BBX 19 19 3 0
BITMAP
FE0FE0
380380
380300
380200
380400
180C00
180800
181800
1C3000
1C2000
1C6000
1C4000
0CC000
0D8000
0D0000
0F0000
0E0000
0E0000
0C0000
ENDCHAR

STARTCHAR W
ENCODING 87
SWIDTH 979 0
DWIDTH 24 0
BBX 24 19 3 0
BITMAP
FEFF3F
30180E
30180C
301808
303818
383810
386830
385C20
38DC40
389C40
399C80
391D80
1B1D00
1A0F00
1C0E00
1C0E00
180C00
180C00
100800
ENDCHAR

STARTCHAR X
ENCODING 88
SWIDTH 750 0
DWIDTH 19 0
BBX 22 19 -1 0
BITMAP
0FF1FC
03C070
01C060
00C0C0
00E180
00E300
007600
007C00
003800
003800
007800
00DC00
018C00
030E00
060E00
0C0700
180300
3C0780
FF1FE0
ENDCHAR

STARTCHAR Y
ENCODING 89
SWIDTH 708 0
DWIDTH 18 0
BBX 18 19 3 0
BITMAP
FE1FC0
380700
380600
180C00
1C0800
1C1800
0E3000
0E6000
07C000
078000
030000
070000
070000
070000
060000
0E0000
0E0000
0E0000
7FC000
ENDCHAR

STARTCHAR Z
ENCODING 90
SWIDTH 687 0
DWIDTH 17 0
BBX 18 19 1 0
BITMAP
07FFC0
0F0380
0E0700
0C0E00
181C00
103800
003800
007000
00E000
01C000
038000
070000
070000
0E0200
1C0600
380C00
701C00
E07C00
FFFC00
ENDCHAR

STARTCHAR bracketleft
ENCODING 91
SWIDTH 344 0
DWIDTH 9 0
BBX 11 22 0 -3
BITMAP
03E0
0700
0600
0600
0600
0E00
0C00
0C00
1C00
1C00
1800
1800
3800
3000
3000
3000
7000
6000
6000
E000
E000
F800
ENDCHAR

STARTCHAR backslash
ENCODING 92
SWIDTH 510 0
DWIDTH 13 0
BBX 11 20 1 0
BITMAP
8000
4000
4000
2000
2000
3000
1000
1800
0800
0C00
0400
0600
0200
0300
0100
0180
0080
00C0
0040
0060
ENDCHAR

STARTCHAR bracketright
ENCODING 93
SWIDTH 344 0
DWIDTH 9 0
BBX 11 22 -2 -3
BITMAP
03E0
00E0
00E0
00C0
00C0
01C0
0180
0180
0180
0380
0300
0300
0700
0700
0600
0600
0E00
0C00
0C00
0C00
1C00
F800
ENDCHAR

STARTCHAR asciicircum
ENCODING 94
SWIDTH 427 0
DWIDTH 11 0
BBX 11 9 1 8
BITMAP
0400
0C00
0A00
1200
2100
2180
4080
4040
8060
ENDCHAR

STARTCHAR underscore
ENCODING 95
SWIDTH 500 0
DWIDTH 13 0
BBX 13 1 0 -5
BITMAP
FFF8
ENDCHAR

STARTCHAR quoteleft
ENCODING 96
SWIDTH 281 0
DWIDTH 7 0
BBX 4 7 4 12
BITMAP
10
60
C0
C0
E0
E0
40
ENDCHAR

STARTCHAR a
ENCODING 97
SWIDTH 604 0
DWIDTH 15 0
BBX 14 14 1 0
BITMAP
0F98
1CD8
3878
7030
7030
6070
E070
E060
C060
C0E0
C0E4
C1C8
E6D0
7CE0
ENDCHAR

STARTCHAR b
ENCODING 98
SWIDTH 604 0
DWIDTH 15 0
BBX 13 20 1 0
BITMAP
0700
1E00
0600
0E00
0E00
0C00
0DF0
1F38
1C18
1818
3818
3818
3038
3038
7030
6070
6060
E0C0
F180
9F00
ENDCHAR

STARTCHAR c
ENCODING 99
SWIDTH 448 0
DWIDTH 11 0
BBX 11 14 0 0
BITMAP
0780
0CC0
18E0
30E0
7000
6000
6000
E000
E000
E000
E000
60C0
7300
3E00
ENDCHAR

STARTCHAR d
ENCODING 100
SWIDTH 604 0
DWIDTH 15 0
BBX 15 19 1 0
BITMAP
003E
000E
000C
000C
001C
0718
0F98
1C58
3838
7030
7030
E070
E060
E060
C0E0
C0E4
E1C8
66D8
7CE0
ENDCHAR

STARTCHAR e
ENCODING 101
SWIDTH 448 0
DWIDTH 11 0
BBX 11 14 0 0
BITMAP
07C0
0CE0
1860
3060
70E0
61C0
6380
EE00
F800
E000
E000
60E0
7380
3E00
ENDCHAR

STARTCHAR f
ENCODING 102
SWIDTH 344 0
DWIDTH 9 0
BBX 17 23 -4 -4
BITMAP
000F00
003B80
003180
006000
006000
00E000
03F800
00C000
01C000
01C000
018000
018000
018000
038000
030000
030000
030000
060000
060000
040000
CC0000
F80000
E00000
ENDCHAR

STARTCHAR g
ENCODING 103
SWIDTH 583 0
DWIDTH 15 0
BBX 16 18 -1 -4
BITMAP
01FF
071B
0E0C
0C0C
0C0C
0C1C
0638
0FE0
1000
3000
3FE0
0FF0
3038
6018
C018
C030
60E0
3F80
ENDCHAR

STARTCHAR h
ENCODING 104
SWIDTH 635 0
DWIDTH 16 0
BBX 15 19 1 0
BITMAP
3E00
0E00
0E00
0C00
0C00
0C70
1DF8
1B18
1C18
3838
3038
3030
7070
6070
6060
60E6
E0CC
C0D8
C0F0
ENDCHAR

STARTCHAR i
ENCODING 105
SWIDTH 344 0
DWIDTH 9 0
BBX 6 19 2 0
BITMAP
1C
1C
0C
00
00
F8
F8
38
30
30
30
70
60
60
60
EC
C8
D0
E0
ENDCHAR

STARTCHAR j
ENCODING 106
SWIDTH 344 0
DWIDTH 9 0
BBX 11 23 -3 -4
BITMAP
00E0
00E0
00E0
0000
0000
03E0
07C0
00C0
01C0
0180
0180
0180
0380
0380
0300
0300
0700
0700
0600
0600
C600
EC00
7800
ENDCHAR

STARTCHAR k
ENCODING 107
SWIDTH 594 0
DWIDTH 15 0
BBX 14 19 0 0
BITMAP
1F00
0600
0600
0E00
0E00
0C38
0C7C
1CCC
1980
1B00
3E00
3B80
38C0
30C0
70C0
60C0
60CC
E0F8
E0F0
ENDCHAR

STARTCHAR l
ENCODING 108
SWIDTH 344 0
DWIDTH 9 0
BBX 7 19 2 0
BITMAP
3E
0E
0C
0C
1C
18
18
18
38
30
30
70
70
60
60
E4
C8
D8
F0
ENDCHAR

STARTCHAR m
ENCODING 109
SWIDTH 906 0
DWIDTH 23 0
BBX 23 14 0 0
BITMAP
3E30F8
7CF9B8
0D1A18
1E1C38
1C3838
183030
383070
387070
307060
3060E0
7060E6
60E0CC
60E0F8
E0C0F0
ENDCHAR

STARTCHAR n
ENCODING 110
SWIDTH 635 0
DWIDTH 16 0
BBX 15 14 1 0
BITMAP
7C70
79F8
1B18
1E18
3838
3038
3030
7070
6060
60E0
60E6
E0CC
C0D8
C0F0
ENDCHAR

STARTCHAR o
ENCODING 111
SWIDTH 531 0
DWIDTH 13 0
BBX 12 14 1 0
BITMAP
07C0
1C60
3870
7030
6030
E030
E070
E070
C070
C0E0
C0E0
E1C0
6380
3E00
ENDCHAR

STARTCHAR p
ENCODING 112
SWIDTH 594 0
DWIDTH 15 0
BBX 16 18 -2 -4
BITMAP
0FBE
0367
0383
0303
0703
0703
0607
0607
0E06
0C0E
0E0E
0E1C
1D38
19F0
1800
3800
3800
FE00
ENDCHAR

STARTCHAR q
ENCODING 113
SWIDTH 573 0
DWIDTH 14 0
BBX 13 18 1 -4
BITMAP
07C8
0CF8
3878
3030
7030
6070
E060
E060
C0E0
C0E0
C0C0
E1C0
E6C0
7D80
0180
0380
0380
1FE0
ENDCHAR

STARTCHAR r
ENCODING 114
SWIDTH 490 0
DWIDTH 12 0
BBX 12 14 1 0
BITMAP
78E0
59F0
1A60
1C00
3C00
3800
3000
3000
7000
6000
6000
E000
C000
C000
ENDCHAR

STARTCHAR s
ENCODING 115
SWIDTH 448 0
DWIDTH 11 0
BBX 10 14 1 0
BITMAP
0F80
19C0
30C0
30C0
3800
1C00
1E00
0700
0380
0180
C180
E180
E300
3E00
ENDCHAR

STARTCHAR t
ENCODING 116
SWIDTH 354 0
DWIDTH 9 0
BBX 8 17 1 0
BITMAP
06
0C
0C
38
FF
38
38
30
30
70
60
60
60
E6
CC
D8
F0
ENDCHAR

STARTCHAR u
ENCODING 117
SWIDTH 635 0
DWIDTH 16 0
BBX 13 14 2 0
BITMAP
7838
F830
3830
3070
3060
7060
60E0
60C0
E0C0
C1C0
C2C8
C590
F9B0
61C0
ENDCHAR

STARTCHAR v
ENCODING 118
SWIDTH 542 0
DWIDTH 14 0
BBX 11 14 2 0
BITMAP
F8C0
F8E0
30E0
3060
7020
6020
6020
6040
E040
C0C0
C080
C100
E700
7C00
ENDCHAR

STARTCHAR w
ENCODING 119
SWIDTH 812 0
DWIDTH 20 0
BBX 18 14 2 0
BITMAP
FC3180
F83180
3831C0
3870C0
3060C0
706080
70E080
60E080
E0C180
E1C100
C1C300
C2C200
ECEC00
787800
ENDCHAR

STARTCHAR x
ENCODING 120
SWIDTH 583 0
DWIDTH 15 0
BBX 15 14 0 0
BITMAP
0C0C
1E1E
272C
2340
03C0
0380
0180
0380
02C0
05C0
08C4
D8C8
F0F8
E060
ENDCHAR

STARTCHAR y
ENCODING 121
SWIDTH 521 0
DWIDTH 13 0
BBX 14 18 -1 -4
BITMAP
0C18
1E1C
161C
270C
0708
0708
0718
0310
0330
0320
0340
0380
0380
0300
0600
CC00
F800
F000
ENDCHAR

STARTCHAR z
ENCODING 122
SWIDTH 510 0
DWIDTH 13 0
BBX 13 14 0 0
BITMAP
0F18
1FF0
33F0
2060
00C0
0180
0300
0600
1800
1000
2030
5E20
FFE0
8780
ENDCHAR

STARTCHAR braceleft
ENCODING 123
SWIDTH 479 0
DWIDTH 12 0
BBX 10 23 4 -4
BITMAP
00C0
0100
0200
0400
0C00
0C00
0C00
0C00
0800
1800
2000
C000
6000
2000
3000
3000
6000
6000
C000
C000
C000
4000
3000
ENDCHAR

STARTCHAR bar
ENCODING 124
SWIDTH 510 0
DWIDTH 13 0
BBX 1 20 6 0
BITMAP
80
80
80
80
80
80
80
80
80
80
80
80
80
80
80
80
80
80
80
80
ENDCHAR

STARTCHAR braceright
ENCODING 125
SWIDTH 479 0
DWIDTH 12 0
BBX 10 23 1 -4
BITMAP
0300
0080
0080
00C0
00C0
0180
0180
0300
0300
0100
0100
00C0
0100
0200
0400
0C00
0C00
0C00
0C00
0800
1800
3000
C000
ENDCHAR

STARTCHAR asciitilde
ENCODING 126
SWIDTH 667 0
DWIDTH 17 0
BBX 13 3 2 7
BITMAP
7C08
8710
81F0
ENDCHAR

STARTCHAR space
ENCODING 160
SWIDTH 250 0
DWIDTH 8 0
BBX 0 0 0 0
BITMAP
ENDCHAR

STARTCHAR afii10023
ENCODING 161
SWIDTH 708 0
DWIDTH 18 0
BBX 19 24 0 0
BITMAP
002100
007380
002100
000000
000000
0FFFE0
03C1E0
0180C0
038040
038040
0380C0
030C00
070800
073800
07F800
063800
0E1000
0E1000
0E3080
1C0180
1C0100
1C0300
1C0F00
FFFF00
ENDCHAR

STARTCHAR afii10051
ENCODING 162
SWIDTH 842 0
DWIDTH 21 0
BBX 18 19 2 0
BITMAP
7FFF80
71C700
61C300
C1C100
818300
038000
038000
033F00
036380
0781C0
0701C0
0601C0
0E01C0
0E01C0
0E0380
0C0380
1C0300
1C2700
FF9E00
ENDCHAR

STARTCHAR afii10052
ENCODING 163
SWIDTH 676 0
DWIDTH 17 0
BBX 19 24 0 0
BITMAP
000700
000F00
003800
000000
000000
0FFFE0
0380E0
038060
038040
030040
070040
070000
070000
060000
0E0000
0E0000
0E0000
0C0000
1C0000
1C0000
180000
180000
380000
FF0000
ENDCHAR

STARTCHAR afii10053
ENCODING 164
SWIDTH 708 0
DWIDTH 18 0
BBX 17 19 2 0
BITMAP
01FC00
078700
0E0380
1C0380
380180
380180
700100
700000
700000
FFC000
E00000
E00000
E00000
E00000
E00600
700400
781800
3C7000
0FE000
ENDCHAR

STARTCHAR afii10054
ENCODING 165
SWIDTH 646 0
DWIDTH 16 0
BBX 16 19 0 0
BITMAP
01FC
070F
0C07
1C03
1C02
1C02
0E00
0F80
07E0
01F8
007C
003E
600E
600E
600E
600C
E01C
F878
1FE0
ENDCHAR

STARTCHAR afii10055
ENCODING 166
SWIDTH 406 0
DWIDTH 10 0
BBX 13 19 0 0
BITMAP
0FF8
01C0
0380
0380
0380
0300
0700
0700
0700
0600
0E00
0E00
0E00
0C00
1C00
1C00
1C00
3C00
FF00
ENDCHAR

STARTCHAR afii10056
ENCODING 167
SWIDTH 406 0
DWIDTH 10 0
BBX 13 24 0 0
BITMAP
0210
0738
0210
0000
0000
0FF8
03C0
0180
0380
0380
0300
0300
0700
0700
0600
0E00
0E00
0E00
0C00
1C00
1C00
1C00
1C00
FF00
ENDCHAR

STARTCHAR afii10057
ENCODING 168
SWIDTH 615 0
DWIDTH 15 0
BBX 17 19 0 0
BITMAP
00FF80
001E00
000C00
001C00
001C00
001800
003800
003800
003800
003000
007000
007000
707000
F06000
F0E000
C0E000
C1C000
638000
3F0000
ENDCHAR

STARTCHAR afii10058
ENCODING 169
SWIDTH 1096 0
DWIDTH 27 0
BBX 27 19 -1 0
BITMAP
01FFFE00
00783800
00303000
00307000
00207000
00607000
00606000
0040E000
00C0E000
00C0FF00
0080C3C0
0181C1E0
0101C0E0
0101C0E0
020180E0
660381E0
E40381C0
FC038780
701FFE00
ENDCHAR

STARTCHAR afii10059
ENCODING 170
SWIDTH 1061 0
DWIDTH 27 0
BBX 26 19 -1 0
BITMAP
0FF3FC00
01C07000
01806000
0380E000
0380E000
0380E000
0300C000
0701C000
0701C000
07FFFF00
06018780
0E0381C0
0E0381C0
0E0381C0
0C0301C0
1C0703C0
1C070380
1C070F00
FFBFFC00
ENDCHAR

STARTCHAR afii10060
ENCODING 171
SWIDTH 847 0
DWIDTH 21 0
BBX 18 19 2 0
BITMAP
7FFF80
71C700
E1C300
C18100
818300
038000
038000
031F00
076380
07C380
070380
060380
0E0300
0E0700
0E0700
0C0700
1C0600
1C0E00
FFBFC0
ENDCHAR

STARTCHAR afii10061
ENCODING 172
SWIDTH 779 0
DWIDTH 19 0
BBX 22 24 0 0
BITMAP
000080
0001C0
000780
000C00
000000
0FF038
03C07C
0380FC
038180
030100
070300
070200
070600
060C00
0FF000
0E3800
0C1C00
1C0C00
1C0E00
1C0E00
180600
380700
380700
FF03C0
ENDCHAR

STARTCHAR hyphen
ENCODING 173
SWIDTH 281 0
DWIDTH 7 0
BBX 5 2 1 6
BITMAP
F8
F8
ENDCHAR

STARTCHAR afii10062
ENCODING 174
SWIDTH 738 0
DWIDTH 18 0
BBX 19 24 3 0
BITMAP
018600
018600
018600
007800
000000
7F0FE0
3C0180
1C0300
1C0200
1C0600
0C0C00
0E0800
0E1800
061000
072000
076000
074000
038000
038000
630000
E20000
F60000
FC0000
700000
ENDCHAR

STARTCHAR afii10145
ENCODING 175
SWIDTH 823 0
DWIDTH 21 0
BBX 23 23 0 -4
BITMAP
0FF1FE
038070
038070
038070
030060
0700E0
0700E0
0700E0
0E00C0
0E01C0
0E01C0
0C01C0
1C0180
1C0380
1C0380
180380
380300
380700
FFFFE0
03E000
018000
018000
010000
ENDCHAR

STARTCHAR afii10017
ENCODING 176
SWIDTH 753 0
DWIDTH 19 0
BBX 20 19 -2 0
BITMAP
000600
000600
000E00
000F00
001700
003700
002700
006300
00C300
008300
018380
030380
03FF80
060380
040180
0C0180
1801C0
3801C0
FE0FF0
ENDCHAR

STARTCHAR afii10018
ENCODING 177
SWIDTH 767 0
DWIDTH 19 0
BBX 20 19 0 0
BITMAP
0FFFF0
01C0E0
018060
038060
038040
030040
030000
070000
07FE00
060780
0E0380
0E01C0
0E01C0
0C01C0
1C01C0
1C0380
1C0380
3C0F00
FFFC00
ENDCHAR

STARTCHAR afii10019
ENCODING 178
SWIDTH 766 0
DWIDTH 19 0
BBX 19 19 0 0
BITMAP
0FFF80
01C1C0
0180E0
0380E0
0380E0
0380E0
0301E0
0701C0
070700
07FC00
060700
0E0180
0E01C0
0E01C0
0C01C0
1C03C0
1C0380
1C0F00
FFFC00
ENDCHAR

STARTCHAR afii10020
ENCODING 179
SWIDTH 676 0
DWIDTH 17 0
BBX 19 19 0 0
BITMAP
0FFFE0
0380E0
038060
038040
030040
070040
070000
070000
060000
0E0000
0E0000
0E0000
0C0000
1C0000
1C0000
180000
180000
380000
FF0000
ENDCHAR

STARTCHAR afii10021
ENCODING 180
SWIDTH 803 0
DWIDTH 20 0
BBX 24 23 -2 -4
BITMAP
00FFFF
003818
003038
003038
002038
002030
006070
004070
004060
00C0E0
0080E0
0080E0
0180C0
0101C0
0301C0
0201C0
040180
1803C0
7FFFF0
7000E0
600060
C00060
800060
ENDCHAR

STARTCHAR afii10022
ENCODING 181
SWIDTH 708 0
DWIDTH 18 0
BBX 19 19 0 0
BITMAP
0FFFE0
0381C0
0380C0
0380C0
0300C0
070080
070800
071800
063800
0FF000
0E7000
0E3000
0C3000
1C2180
1C0100
1C0300
180700
381E00
FFFE00
ENDCHAR

STARTCHAR afii10024
ENCODING 182
SWIDTH 1175 0
DWIDTH 29 0
BBX 32 19 -1 0
BITMAP
0381FE07
07C0780F
03C0701F
00407010
00407020
00406060
0060E040
0020E0C0
0010C180
003FFE00
00F1C780
01C1C380
03818180
078381C0
070381C0
0E0380C0
1C0300E0
3C0780E0
F83FE0F8
ENDCHAR

STARTCHAR afii10025
ENCODING 183
SWIDTH 632 0
DWIDTH 16 0
BBX 16 19 1 0
BITMAP
03FC
0F0E
0C07
0807
1807
1007
000E
001C
00F0
03F0
0038
001C
001C
001C
801C
8038
C070
61E0
3FC0
ENDCHAR

STARTCHAR afii10026
ENCODING 184
SWIDTH 823 0
DWIDTH 21 0
BBX 23 19 0 0
BITMAP
0FF1FE
038078
038070
0380F0
0301F0
070360
0706E0
070CE0
0618E0
0E31C0
0E61C0
0EC1C0
0D8180
1D0380
1F0380
1E0380
1C0300
380780
FF1FE0
ENDCHAR

STARTCHAR afii10027
ENCODING 185
SWIDTH 823 0
DWIDTH 21 0
BBX 22 24 0 0
BITMAP
0030C0
0030C0
0030C0
001F00
000000
0FF3FC
038070
0380F0
0380E0
0301E0
070360
0706C0
060CC0
0E19C0
0E31C0
0E6180
0CC180
1D8380
1F0380
1E0300
1C0300
380700
380700
FF1FC0
ENDCHAR

STARTCHAR afii10028
ENCODING 186
SWIDTH 779 0
DWIDTH 19 0
BBX 22 19 0 0
BITMAP
0FF038
03C07C
0380FC
038180
030100
070300
070200
070600
060C00
0FF000
0E3800
0C1C00
1C0C00
1C0E00
1C0E00
180600
380700
380700
FF03C0
ENDCHAR

STARTCHAR afii10029
ENCODING 187
SWIDTH 830 0
DWIDTH 21 0
BBX 24 19 -1 0
BITMAP
00FFFF
003818
003038
003038
002030
002070
006070
004070
004060
00C0E0
0080E0
0180E0
0100C0
0101C0
0301C0
6201C0
F60180
FC0380
700FF0
ENDCHAR

STARTCHAR afii10030
ENCODING 188
SWIDTH 979 0
DWIDTH 24 0
BBX 27 19 0 0
BITMAP
0FE00FE0
03600B00
03601B00
02E03700
02E02600
02E06E00
06604E00
0460CE00
04618C00
04611C00
0C631C00
08721C00
08761800
18743800
18783800
10783000
30707000
78307000
FE21FE00
ENDCHAR

STARTCHAR afii10031
ENCODING 189
SWIDTH 812 0
DWIDTH 20 0
BBX 23 19 0 0
BITMAP
0FF1FE
038070
038070
038070
030060
0700E0
0700E0
0700C0
0600C0
0FFFC0
0E01C0
0E0180
0C0380
1C0380
1C0380
1C0300
180700
380700
FF1FC0
ENDCHAR

STARTCHAR afii10032
ENCODING 190
SWIDTH 787 0
DWIDTH 20 0
BBX 18 19 2 0
BITMAP
00FC00
030700
0E0380
1C0180
3801C0
3801C0
7001C0
7001C0
7001C0
E001C0
E00380
E00380
E00380
E00700
E00700
600E00
301C00
187000
0FC000
ENDCHAR

STARTCHAR afii10033
ENCODING 191
SWIDTH 823 0
DWIDTH 21 0
BBX 23 19 0 0
BITMAP
0FFFFE
03C078
038070
038070
038070
030060
0700E0
0700E0
0600E0
0600C0
0E01C0
0E01C0
0C01C0
1C0380
1C0380
1C0380
180300
380780
FF1FE0
ENDCHAR

STARTCHAR afii10034
ENCODING 192
SWIDTH 704 0
DWIDTH 18 0
BBX 19 19 -1 0
BITMAP
0FFF00
01C1C0
0180C0
0380E0
0380E0
0380E0
0301E0
0701C0
070780
07FE00
060000
0E0000
0E0000
0E0000
0C0000
1C0000
1C0000
1C0000
FF8000
ENDCHAR

STARTCHAR afii10035
ENCODING 193
SWIDTH 708 0
DWIDTH 18 0
BBX 17 19 2 0
BITMAP
01FC00
078700
0E0380
1C0180
380180
380100
700100
700000
700000
E00000
E00000
E00000
E00000
E00200
E00600
700400
781800
3C7000
0FE000
ENDCHAR

STARTCHAR afii10036
ENCODING 194
SWIDTH 708 0
DWIDTH 18 0
BBX 18 19 2 0
BITMAP
3FFFC0
3CE1C0
30E180
60E080
60E080
40C080
C1C180
01C000
018000
038000
038000
038000
030000
070000
070000
070000
060000
0F0000
7FC000
ENDCHAR

STARTCHAR afii10037
ENCODING 195
SWIDTH 738 0
DWIDTH 18 0
BBX 20 19 2 0
BITMAP
7F87F0
1C00C0
1C0180
0C0100
0E0300
0E0600
060400
070800
071800
071000
032000
03E000
03C000
018000
618000
F30000
F20000
7C0000
380000
ENDCHAR

STARTCHAR afii10038
ENCODING 196
SWIDTH 874 0
DWIDTH 22 0
BBX 21 19 1 0
BITMAP
007F80
001C00
03FF80
0E18E0
1C3870
383830
703838
607038
E07038
E07038
E07030
E0E070
60E0E0
70E1E0
38C780
0FFE00
01C000
03C000
0FF000
ENDCHAR

STARTCHAR afii10039
ENCODING 197
SWIDTH 760 0
DWIDTH 19 0
BBX 23 19 -1 0
BITMAP
0FF1FE
01C078
01C060
00E0C0
00E180
006300
007600
007C00
003800
003800
007C00
00DC00
018E00
030E00
060600
0C0700
1C0300
3C0780
FF1FE0
ENDCHAR

STARTCHAR afii10040
ENCODING 198
SWIDTH 823 0
DWIDTH 21 0
BBX 23 23 0 -4
BITMAP
0FF1FE
038070
038070
038070
030060
0700E0
0700E0
0700E0
0E00C0
0E01C0
0E01C0
0E01C0
1C0380
1C0380
1C0380
1C0380
380700
380780
FFFFE0
0000E0
000040
000040
000040
ENDCHAR

STARTCHAR afii10041
ENCODING 199
SWIDTH 779 0
DWIDTH 19 0
BBX 19 19 3 0
BITMAP
FF1FE0
3C0380
380700
380700
300700
300600
700E00
700E00
701E00
786C00
3FDC00
1F1C00
001C00
001800
003800
003800
003800
007800
01FE00
ENDCHAR

STARTCHAR afii10042
ENCODING 200
SWIDTH 1141 0
DWIDTH 29 0
BBX 31 19 0 0
BITMAP
07F3F8FE
0380E078
0380E070
0380C070
0381C070
0701C060
0701C0E0
070380E0
060380C0
0E0381C0
0E0301C0
0E0701C0
0C070180
1C070380
1C060380
1C0E0380
180E0300
380E0780
FFFFFFC0
ENDCHAR

STARTCHAR afii10043
ENCODING 201
SWIDTH 1132 0
DWIDTH 28 0
BBX 31 23 0 -4
BITMAP
07F3F8FE
0380E070
0380E070
0380C070
0301C060
0701C060
0701C0E0
070380E0
060380C0
0E0381C0
0E0301C0
0E0701C0
0C070180
1C070380
1C060380
1C0E0380
180E0300
380E0780
FFFFFFE0
000000E0
00000040
00000040
00000040
ENDCHAR

STARTCHAR afii10044
ENCODING 202
SWIDTH 881 0
DWIDTH 22 0
BBX 19 19 2 0
BITMAP
3FFC00
38E000
30E000
60E000
40C000
C1C000
01C000
01C000
01FF00
0383C0
0381C0
0300E0
0300E0
0700E0
0700E0
0601C0
0E01C0
0E0780
3FFE00
ENDCHAR

STARTCHAR afii10045
ENCODING 203
SWIDTH 1083 0
DWIDTH 27 0
BBX 29 19 0 0
BITMAP
0FF007F8
038001C0
038001C0
030001C0
07000180
07000380
07000380
06000380
0FFC0300
0E0F0700
0E070700
0C038600
1C038600
1C038E00
1C038E00
18070C00
38071C00
381E1C00
FFF8FF80
ENDCHAR

STARTCHAR afii10046
ENCODING 204
SWIDTH 739 0
DWIDTH 18 0
BBX 18 19 -1 0
BITMAP
07F000
01C000
01C000
018000
038000
038000
030000
070000
07FE00
070780
060380
0E01C0
0E01C0
0E01C0
0C01C0
1C0380
1C0380
1C0F00
FFFC00
ENDCHAR

STARTCHAR afii10047
ENCODING 205
SWIDTH 703 0
DWIDTH 18 0
BBX 17 19 1 0
BITMAP
03F800
0F0E00
1C0700
180300
180380
100380
300380
000380
000380
01FF80
000780
000700
000700
800E00
C00E00
401C00
603800
30F000
0FC000
ENDCHAR

STARTCHAR afii10048
ENCODING 206
SWIDTH 1133 0
DWIDTH 28 0
BBX 29 19 -1 0
BITMAP
0FF81F80
01C070C0
01C1C070
01838030
03870038
03870038
038E0038
030E0038
070E0038
07FE0038
061C0078
0E1C0070
0E1C0070
0E1C00E0
0C1C00E0
1C0C01C0
1C060380
1C070E00
FF81F800
ENDCHAR

STARTCHAR afii10049
ENCODING 207
SWIDTH 746 0
DWIDTH 19 0
BBX 22 19 -1 0
BITMAP
007FFC
00E070
01C060
0380E0
0380E0
0380E0
0380C0
0181C0
00C1C0
007FC0
01C380
038380
038380
070300
0F0700
0E0700
1C0700
3C0F00
F83FC0
ENDCHAR

STARTCHAR afii10065
ENCODING 208
SWIDTH 604 0
DWIDTH 15 0
BBX 14 14 1 0
BITMAP
0F98
1CD8
3878
7030
7030
6070
E070
E060
C060
C0E0
C0C4
C1C8
E6D0
7CE0
ENDCHAR

STARTCHAR afii10066
ENCODING 209
SWIDTH 551 0
DWIDTH 14 0
BBX 15 20 1 0
BITMAP
0002
00FE
07FC
0F00
1800
3000
27C0
2860
5030
7030
6030
E030
E070
C070
C070
C060
C0E0
41C0
6380
1E00
ENDCHAR

STARTCHAR afii10067
ENCODING 210
SWIDTH 488 0
DWIDTH 12 0
BBX 11 14 1 0
BITMAP
07C0
1CE0
3860
3060
70C0
E380
EF00
F1C0
C0C0
C0C0
C0C0
E1C0
6380
3E00
ENDCHAR

STARTCHAR afii10068
ENCODING 211
SWIDTH 439 0
DWIDTH 11 0
BBX 10 14 1 0
BITMAP
0F80
39C0
00C0
00C0
01C0
0380
0E00
3800
7000
E000
C000
C180
E700
7C00
ENDCHAR

STARTCHAR afii10069
ENCODING 212
SWIDTH 542 0
DWIDTH 14 0
BBX 12 20 1 0
BITMAP
0600
0780
00C0
0060
0060
0030
0F30
38B0
3070
6070
6070
E070
E060
C060
C0E0
C0C0
C0C0
E180
6300
3E00
ENDCHAR

STARTCHAR afii10070
ENCODING 213
SWIDTH 458 0
DWIDTH 11 0
BBX 11 14 0 0
BITMAP
07C0
0CE0
1860
3060
70E0
60C0
6380
EE00
F800
E000
E000
60E0
7380
3E00
ENDCHAR

STARTCHAR afii10072
ENCODING 214
SWIDTH 975 0
DWIDTH 24 0
BBX 24 14 0 0
BITMAP
0E061E
3F0637
238C63
418C63
018CC0
018CC0
0198C0
01FF80
031980
033180
C63180
C631C6
EC60FC
786070
ENDCHAR

STARTCHAR afii10073
ENCODING 215
SWIDTH 490 0
DWIDTH 12 0
BBX 12 14 0 0
BITMAP
0FE0
1C70
1030
3030
0060
00C0
0F80
01C0
00E0
E0E0
E0E0
C0C0
6380
3F00
ENDCHAR

STARTCHAR afii10074
ENCODING 216
SWIDTH 629 0
DWIDTH 16 0
BBX 13 14 2 0
BITMAP
F838
3830
3030
3070
3060
7060
60E0
60C0
E0C0
C1C0
C288
C590
F9B0
61C0
ENDCHAR

STARTCHAR afii10075
ENCODING 217
SWIDTH 635 0
DWIDTH 16 0
BBX 13 19 2 0
BITMAP
0210
0320
03C0
0000
0000
F838
7830
3830
3070
3060
7060
60E0
60E0
E0C0
C1C0
C2C8
C590
F9B0
61C0
ENDCHAR

STARTCHAR afii10076
ENCODING 218
SWIDTH 594 0
DWIDTH 15 0
BBX 15 14 1 0
BITMAP
7C0C
1C1E
1834
1820
3840
3080
3F00
3380
7180
6180
61C0
E0C0
E0C0
C0F0
ENDCHAR

STARTCHAR afii10077
ENCODING 219
SWIDTH 646 0
DWIDTH 16 0
BBX 16 14 0 0
BITMAP
07FF
0186
030E
030E
020C
020C
041C
0418
0418
0838
0839
D832
F036
E038
ENDCHAR

STARTCHAR afii10078
ENCODING 220
SWIDTH 854 0
DWIDTH 21 0
BBX 21 14 0 0
BITMAP
0FC078
02C0D0
02C0B0
02C170
06C360
04C260
04C4E0
04C4C0
08C8C0
08D0C0
08D1C8
F0E190
F0E1A0
E0C1C0
ENDCHAR

STARTCHAR afii10079
ENCODING 221
SWIDTH 644 0
DWIDTH 16 0
BBX 15 14 0 0
BITMAP
3E0E
0C0C
1C1C
1C1C
1818
1818
3FF8
3030
3030
7070
7032
6064
606C
E070
ENDCHAR

STARTCHAR afii10080
ENCODING 222
SWIDTH 531 0
DWIDTH 13 0
BBX 12 14 1 0
BITMAP
07C0
1C60
3870
7030
6030
E030
E070
E070
C070
C0E0
C0E0
E1C0
6380
3E00
ENDCHAR

STARTCHAR afii10081
ENCODING 223
SWIDTH 635 0
DWIDTH 16 0
BBX 15 14 1 0
BITMAP
7C70
79F8
1B18
1E18
3838
3038
3030
7070
7060
60E0
60E6
E0CC
C0D8
C0F0
ENDCHAR

STARTCHAR afii10082
ENCODING 224
SWIDTH 583 0
DWIDTH 15 0
BBX 16 18 -2 -4
BITMAP
0FBE
0367
0383
0303
0703
0703
0607
0607
0E06
0C0E
0E0C
0E1C
1D38
19F0
1800
3800
3800
FE00
ENDCHAR

STARTCHAR afii10083
ENCODING 225
SWIDTH 458 0
DWIDTH 11 0
BBX 11 14 1 0
BITMAP
0780
0CC0
18E0
30E0
7000
6000
6000
E000
E000
E000
E000
60C0
7300
3E00
ENDCHAR

STARTCHAR afii10084
ENCODING 226
SWIDTH 906 0
DWIDTH 23 0
BBX 22 14 0 0
BITMAP
3E30F0
7CF9B0
0D1B30
1E1C30
1C3830
183060
383060
387060
307060
3060C0
7060CC
60E0D8
60E0F0
E0C0E0
ENDCHAR

STARTCHAR afii10085
ENCODING 227
SWIDTH 510 0
DWIDTH 13 0
BBX 14 18 -1 -4
BITMAP
0C18
1E1C
161C
270C
0708
0708
0718
0310
0330
0320
0340
0380
0380
0300
0600
CC00
F800
E000
ENDCHAR

STARTCHAR afii10086
ENCODING 228
SWIDTH 759 0
DWIDTH 19 0
BBX 18 23 1 -4
BITMAP
0007C0
000CC0
0018C0
001800
003000
0F3780
1CA9C0
3870C0
3060C0
7060C0
60C0C0
E0C1C0
E0C1C0
C1C180
C18380
C18300
C18700
E74E00
7B3C00
030000
C60000
EC0000
780000
ENDCHAR

STARTCHAR afii10087
ENCODING 229
SWIDTH 573 0
DWIDTH 14 0
BBX 14 14 0 0
BITMAP
0C1C
1E3C
262C
6740
0380
0380
0380
0380
0680
05C0
09CC
D0C8
F0F0
E060
ENDCHAR

STARTCHAR afii10088
ENCODING 230
SWIDTH 635 0
DWIDTH 16 0
BBX 13 18 2 -4
BITMAP
F838
3830
3030
3070
3060
7060
60E0
60C0
E0C0
C1C0
C280
C598
F9A8
61D0
0030
0030
0060
0080
ENDCHAR

STARTCHAR afii10089
ENCODING 231
SWIDTH 602 0
DWIDTH 15 0
BBX 13 13 1 0
BITMAP
F838
3030
3070
7060
6060
60E0
73E0
3EC0
00C0
01C8
0190
01B0
01E0
ENDCHAR

STARTCHAR afii10090
ENCODING 232
SWIDTH 896 0
DWIDTH 22 0
BBX 20 14 2 0
BITMAP
3C0000
783870
183060
3870E0
3060E0
3060C0
70E1C0
60C1C0
60C180
E1C380
C387B0
C68B20
CD93C0
F1E180
ENDCHAR

STARTCHAR afii10091
ENCODING 233
SWIDTH 895 0
DWIDTH 22 0
BBX 20 18 2 -4
BITMAP
3C0000
783870
183060
3870E0
3060E0
3060C0
70E1C0
60C1C0
60C180
E1C380
C38790
C68B20
CD9360
F1E3A0
000060
000060
0000C0
000100
ENDCHAR

STARTCHAR afii10092
ENCODING 234
SWIDTH 573 0
DWIDTH 14 0
BBX 13 15 1 0
BITMAP
1180
7F80
FD00
0300
0600
0C00
1BE0
1E70
3C38
3838
3838
3030
3070
38E0
0F80
ENDCHAR

STARTCHAR afii10093
ENCODING 235
SWIDTH 798 0
DWIDTH 20 0
BBX 17 14 2 0
BITMAP
F80F80
380300
300700
300700
700600
6F8600
79CE00
E0CC00
E0CC00
C0CC00
C1DD80
C19900
671A00
3E1C00
ENDCHAR

STARTCHAR afii10094
ENCODING 236
SWIDTH 521 0
DWIDTH 13 0
BBX 10 14 2 0
BITMAP
F800
3800
3000
3000
7000
6F80
79C0
E0C0
E0C0
C0C0
C1C0
C380
6700
3E00
ENDCHAR

STARTCHAR afii10095
ENCODING 237
SWIDTH 448 0
DWIDTH 11 0
BBX 11 14 0 0
BITMAP
0FC0
18C0
20E0
0060
0060
0060
07E0
00E0
00E0
00C0
61C0
E380
E700
7C00
ENDCHAR

STARTCHAR afii10096
ENCODING 238
SWIDTH 805 0
DWIDTH 20 0
BBX 19 14 1 0
BITMAP
7C0F80
1C38C0
1C7060
18E060
18C060
39C060
3FC0E0
31C0E0
7180E0
6181C0
6181C0
61C380
E0C700
C07C00
ENDCHAR

STARTCHAR afii10097
ENCODING 239
SWIDTH 592 0
DWIDTH 15 0
BBX 15 14 -1 0
BITMAP
03FE
070C
0E1C
0C1C
0C18
0C18
0638
03F0
0E30
0C30
1C72
3864
3078
F030
ENDCHAR

STARTCHAR afii61352
ENCODING 240
SWIDTH 1000 0
DWIDTH 25 0
BBX 27 19 -1 0
BITMAP
07C01E00
01C03E00
00E06E00
01E04000
01A04000
01704780
0170CC40
03709860
02309860
0239B860
02393060
061930C0
041930C0
041F1180
041E0E00
0C0E0000
680E0000
F80E3E00
F00C3E00
ENDCHAR

STARTCHAR afii10071
ENCODING 241
SWIDTH 462 0
DWIDTH 12 0
BBX 12 19 1 0
BITMAP
0820
1C70
0820
0000
0000
0780
19C0
30C0
70C0
61C0
E180
E700
CC00
F000
C000
C000
E1C0
6700
3C00
ENDCHAR

STARTCHAR afii10099
ENCODING 242
SWIDTH 563 0
DWIDTH 14 0
BBX 13 23 1 -4
BITMAP
1F00
0700
0600
3FF0
0E00
0C30
0CF8
1B18
1E18
1C38
3838
3038
3030
7070
7070
6060
60E0
E0C0
C1C0
0180
0300
0E00
1800
ENDCHAR

STARTCHAR afii10100
ENCODING 243
SWIDTH 510 0
DWIDTH 13 0
BBX 15 20 -1 0
BITMAP
0004
001C
0038
00C0
0000
0000
1FFE
070C
0704
0704
060C
0600
0E00
0C00
0C00
1C00
1C00
1800
3800
FE00
ENDCHAR

STARTCHAR afii10101
ENCODING 244
SWIDTH 469 0
DWIDTH 12 0
BBX 11 14 1 0
BITMAP
07C0
0CE0
18E0
3060
7000
6000
7E00
E000
E000
E000
E000
60C0
7300
3E00
ENDCHAR

STARTCHAR afii10102
ENCODING 245
SWIDTH 448 0
DWIDTH 11 0
BBX 10 14 0 0
BITMAP
0F80
19C0
30C0
30C0
3800
1C00
1E00
0700
0380
0180
C180
E180
E300
3E00
ENDCHAR

STARTCHAR afii10103
ENCODING 246
SWIDTH 344 0
DWIDTH 9 0
BBX 6 19 2 0
BITMAP
1C
1C
0C
00
00
78
F8
38
30
30
30
70
60
60
60
EC
C8
D0
E0
ENDCHAR

STARTCHAR afii10104
ENCODING 247
SWIDTH 344 0
DWIDTH 9 0
BBX 8 19 2 0
BITMAP
42
E7
42
00
00
7C
F8
18
38
38
30
70
70
60
60
E6
CC
D8
F0
ENDCHAR

STARTCHAR afii10105
ENCODING 248
SWIDTH 344 0
DWIDTH 9 0
BBX 11 23 -3 -4
BITMAP
00E0
00E0
00E0
0000
0000
03E0
07C0
00C0
01C0
01C0
0180
0180
0380
0380
0300
0300
0700
0700
0600
0600
C600
EC00
7800
ENDCHAR

STARTCHAR afii10106
ENCODING 249
SWIDTH 850 0
DWIDTH 21 0
BBX 22 14 -1 0
BITMAP
07FF00
01C700
018700
010600
010E00
020DF0
020F38
021E1C
041C1C
04181C
0C1818
681838
F80C70
7007C0
ENDCHAR

STARTCHAR afii10107
ENCODING 250
SWIDTH 845 0
DWIDTH 21 0
BBX 19 14 1 0
BITMAP
7C0C00
1C1C00
1C1800
181800
183800
3837C0
3FFCE0
307060
707060
606060
6060E0
6061C0
E033C0
C01F00
ENDCHAR

STARTCHAR afii10108
ENCODING 251
SWIDTH 635 0
DWIDTH 16 0
BBX 15 19 1 0
BITMAP
3E00
0E00
0E00
3FF0
0C00
0C70
1DF8
1B18
1C18
3838
3038
3030
7070
6070
6060
60E6
E0CC
C0D8
C0F0
ENDCHAR

STARTCHAR afii10109
ENCODING 252
SWIDTH 594 0
DWIDTH 15 0
BBX 15 19 1 0
BITMAP
0030
0070
01C0
0100
0000
7C0C
1C1E
1834
1820
3840
3080
3F00
3380
7180
6180
61C0
E0C0
E0C0
C0F0
ENDCHAR

STARTCHAR section
ENCODING 253
SWIDTH 489 0
DWIDTH 12 0
BBX 13 23 0 -4
BITMAP
01E0
0338
0638
0610
0600
0700
0380
0F80
19C0
38C0
30E0
3860
3C60
1C60
1EC0
0F80
0700
0380
0180
4180
E180
6300
3E00
ENDCHAR

STARTCHAR afii10110
ENCODING 254
SWIDTH 510 0
DWIDTH 13 0
BBX 14 23 -1 -4
BITMAP
0108
01D8
00F0
0000
0000
0C18
1E1C
161C
270C
0708
0708
0718
0310
0330
0320
0340
0380
0380
0300
0600
CC00
F800
E000
ENDCHAR

STARTCHAR afii10193
ENCODING 255
SWIDTH 635 0
DWIDTH 16 0
BBX 13 18 2 -4
BITMAP
F838
3830
3830
3070
3060
7060
60E0
60E0
60C0
C1C0
C3C8
C690
EDB0
F1C0
2000
6000
6000
C000
ENDCHAR
ENDFONT
